<?xml version="1.0" encoding="UTF-8"?><svg id="Layer_2" xmlns="http://www.w3.org/2000/svg" viewBox="0 0 546.1004181 137.583992"><defs><style>.cls-1{fill:#009fdf;}.cls-2{fill:#003264;}</style></defs><g id="Layer_1-2"><path class="cls-2" d="M157.1179962,64.2659912V0h-51.8790054v62.6779938c0,13.3400116-9.7399979,17.5750122-26.6799927,17.5750122s-26.6800003-4.1820068-26.6800003-17.5750122V0H0v64.2659912c0,32.927002,25.197998,42.9319992,78.5589981,42.9319992s78.5589981-10.0049973,78.5589981-42.9319992"/><polygon class="cls-2" points="313.6533051 103.5983887 360.7672882 103.5983887 360.7672882 .0003967 287.7142792 .0003967 266.1682892 60.1893921 265.7982941 60.1893921 244.3052979 .0003967 171.3052979 .0003967 171.3052979 103.5983887 218.4192963 103.5983887 218.4192963 29.592392 218.7893066 29.592392 246.3703003 103.5983887 285.7552948 103.5983887 313.2823029 29.592392 313.6533051 29.592392 313.6533051 103.5983887"/><path class="cls-2" d="M515.6614532,46.2673035v-.2649994c9.9530029-3.0700073,15.6170044-11.0639954,15.6170044-20.1690063C531.2784576,9.3173065,519.3144684.0003052,492.4754791.0003052h-118.1029968v103.5979919h112.3850098c38.4329529,0,51.3500061-13.3399963,51.3500061-33.6679993,0-7.6759949-5.5060425-20.1689911-22.4460449-23.6629944M425.1914825,25.251297h39.1740112c10.4819946,0,12.8639832,2.753006,12.8639832,6.5110016,0,4.076004-2.3819885,6.82901-12.8639832,6.82901h-39.1740112v-13.3400116ZM469.5005035,78.2942963h-44.309021v-16.2519989h44.309021c10.269989.053009,13.4459839,3.6529999,13.4459839,8.1529999,0,4.6580048-3.1229858,8.098999-13.4459839,8.098999"/><rect class="cls-1" x=".0001984" y="117.5209961" width="534.2420044" height="20.0629959"/><path class="cls-1" d="M537.7334747,102.6166916v-2.7449951h1.7889404c.4800415,0,.9500122.0639954,1.2990112.2669983.3500366.2030029.5800171.5439987.5800171,1.0979996,0,.6719971-.2949829,1.0169983-.7390137,1.1940002-.4439697.177002-1.0379639.185997-1.6380005.185997h-1.2909546ZM537.7334747,103.4486923h1.6389771l1.1159668,1.7600021,1.1170044,1.7600021h1.1400146l-1.1790161-1.7600021-1.1799927-1.7600021c.5339966-.0929947,1.03302-.2959976,1.3970337-.6500015.3649902-.3549957.5960083-.8610001.5960083-1.5619965,0-.7099991-.197998-1.2580032-.6200562-1.6289978-.4209595-.3710022-1.0669556-.5650024-1.9609985-.5650024h-3.0429688v7.9260025h.9780273v-3.5200043ZM539.2464752,97.1246948c1.6599731,0,3.105957.6500015,4.1379395,1.7099991,1.0310059,1.0599976,1.6480103,2.5299988,1.6480103,4.1699982,0,1.6409988-.6170044,3.1119995-1.6480103,4.1720047-1.0319824,1.0599976-2.4779663,1.7099991-4.1379395,1.7099991-1.6600342,0-3.1080322-.6500015-4.1410522-1.7099991-1.032959-1.0600052-1.651001-2.5310059-1.651001-4.1720047,0-1.6399994.618042-3.1100006,1.651001-4.1699982,1.03302-1.0599976,2.4810181-1.7099991,4.1410522-1.7099991M539.2464752,96.1466904c-1.9360352,0-3.651001.7510071-4.882019,1.9840012-1.2310181,1.2330017-1.9780273,2.9470062-1.9780273,4.8740005,0,1.9280014.7470093,3.6430054,1.9780273,4.8759995,1.2310181,1.2330017,2.9459839,1.9840012,4.882019,1.9840012,1.9359741,0,3.6489868-.7509995,4.8789673-1.9840012,1.2290039-1.2329941,1.9749756-2.947998,1.9749756-4.8759995,0-1.9269943-.7459717-3.6409988-1.9749756-4.8740005-1.2299805-1.2329941-2.9429932-1.9840012-4.8789673-1.9840012"/></g></svg>